<svg height="512pt" viewBox="0 0 512 512.18267" width="512pt" xmlns="http://www.w3.org/2000/svg"><path d="m179.292969 76.984375c18.054687-.042969 35.539062 6.339844 49.320312 18.003906l53.078125 41.726563 26.878906-48.722656c-24.75-48.640626-74.703124-79.273438-129.277343-79.277344zm0 0" fill="#e3e7f2"/><path d="m299.867188 313.527344-43.773438 36.523437-96.855469-99.585937c-3.082031-3.300782-4.726562-7.695313-4.566406-12.207032.160156-4.515624 2.109375-8.78125 5.421875-11.855468l31.144531-29.183594zm0 0" fill="#d4e1f4"/><path d="m486.066406 146.871094c-.179687 5.691406-2.640625 11.074218-6.828125 14.933594l-18.347656 17.152343-161.023437 134.570313-108.628907-116.308594 10.921875-10.15625c3.058594-2.789062 5.398438-6.269531 6.828125-10.15625 9.554688-25.460938 16.113281-51.949219 19.539063-78.929688l.085937-2.988281.941407-27.820312c.171874-8.785157 4.429687-16.988281 11.519531-22.183594 6.539062-4.855469 15.257812-5.609375 22.535156-1.945313 7.273437 3.667969 11.859375 11.121094 11.851563 19.265626l-1.191407 34.132812-.085937 3.5c-.128906 3.449219 1.832031 6.636719 4.972656 8.078125 3.136719 1.4375 6.832031.84375 9.363281-1.507813l20.050781-18.515624 79.617188-73.730469c6.316406-5.863281 15.535156-7.363281 23.386719-3.800781 7.847656 3.558593 12.792969 11.484374 12.539062 20.101562-.394531 5.558594-3.007812 10.722656-7.253906 14.335938l24.917969-23.296876c5.578125-5.199218 13.507812-7.023437 20.796875-4.792968 7.292969 2.234375 12.839843 8.1875 14.550781 15.617187 1.710938 7.429688-.671875 15.210938-6.25 20.40625l-24.917969 23.296875c8.605469-8.023437 22.082031-7.566406 30.125 1.023438 3.902344 4.109375 5.996094 9.613281 5.804688 15.277344-.195313 5.664062-2.65625 11.011718-6.828125 14.847656l-24.917969 23.292968c8.605469-8.023437 22.082031-7.5625 30.121094 1.027344 3.859375 4.136719 5.941406 9.617188 5.804687 15.273438zm0 0" fill="#a4c2f7"/><path d="m333.320312 239.714844-4.78125 4.4375c-3.300781 3.101562-7.703124 4.765625-12.234374 4.625-4.527344-.144532-8.816407-2.085938-11.914063-5.394532l-42.667969-45.738281c-3.917968-4.144531-5.460937-9.996093-4.09375-15.53125l5.546875-23.808593c2.03125-8.632813 10.339844-14.269532 19.113281-12.96875l21.84375 3.15625c3.839844.566406 7.363282 2.433593 9.984376 5.289062l19.457031 20.824219zm0 0" fill="#d4e1f4"/><path d="m486.492188 443.914062v42.667969c-.027344 9.414063-7.652344 17.039063-17.066407 17.066407h-119.46875c-9.414062-.027344-17.035156-7.652344-17.066406-17.066407v-42.667969zm0 0" fill="#7fabfa"/><path d="m497.328125 194.144531c-7.523437-7.488281-19.402344-8.324219-27.902344-1.960937-2.53125-1.890625-5.441406-3.199219-8.535156-3.839844v-13.226562c0-8.082032-4.5625-15.46875-11.792969-19.082032-7.226562-3.613281-15.875-2.835937-22.339844 2.015625-2.527343-1.890625-5.441406-3.203125-8.53125-3.839843v-13.226563c0-11.785156-9.550781-21.335937-21.335937-21.335937-11.78125 0-21.332031 9.550781-21.332031 21.335937v33.277344c.058594-5.289063-1.925782-10.394531-5.546875-14.25-4.007813-4-9.441407-6.238281-15.105469-6.230469-1.667969-.015625-3.332031.183594-4.949219.597656-9.417969 2.242188-16.140625 10.546875-16.382812 20.226563v.511719l-.253907 64.597656-.171874 42.066406-13.910157 115.117188c3.839844 6.570312 7.507813 13.3125 10.921875 20.222656 1.796875 3.695312 2.730469 7.753906 2.730469 11.863281v14.929687h153.601563v-22.097656c.027343-2.152344.847656-4.21875 2.304687-5.804687 8.589844-8.488281 13.832031-19.789063 14.761719-31.828125v-174.933594c.011718-5.664062-2.230469-11.097656-6.230469-15.105469zm0 0" fill="#d4e1f4"/><path d="m503.558594 209.25v174.933594c-.929688 12.039062-6.171875 23.339844-14.761719 31.828125-1.457031 1.585937-2.277344 3.652343-2.304687 5.804687v22.097656h-25.601563v-22.097656c.027344-2.152344.847656-4.21875 2.304687-5.804687 8.59375-8.488281 13.832032-19.789063 14.761719-31.828125v-174.933594c.011719-5.664062-2.230469-11.097656-6.226562-15.105469-.710938-.71875-1.480469-1.375-2.304688-1.960937 6.464844-4.847656 15.113281-5.628906 22.339844-2.015625s11.792969 11 11.792969 19.082031zm0 0" fill="#a4c2f7"/><path d="m469.425781 192.183594c-5.382812 4.019531-8.546875 10.347656-8.535156 17.066406v-20.90625c3.09375.640625 6.003906 1.949219 8.535156 3.839844zm0 0" fill="#d4e1f4"/><path d="m384.09375 426.847656h93.863281c9.425781 0 17.066407 7.644532 17.066407 17.066406v8.535157c0 9.425781-7.640626 17.066406-17.066407 17.066406h-93.863281c-9.425781 0-17.070312-7.640625-17.070312-17.066406v-8.535157c0-9.421874 7.644531-17.066406 17.070312-17.066406zm0 0" fill="#7fabfa"/><g fill="#a4c2f7"><path d="m460.890625 443.914062v42.667969c-.027344 9.414063-7.652344 17.039063-17.066406 17.066407h-93.867188c-9.414062-.027344-17.035156-7.652344-17.066406-17.066407v-42.667969zm0 0"/><path d="m384.09375 426.847656h68.265625c9.425781 0 17.066406 7.644532 17.066406 17.066406v8.535157c0 9.425781-7.640625 17.066406-17.066406 17.066406h-68.265625c-9.425781 0-17.070312-7.640625-17.070312-17.066406v-8.535157c0-9.421874 7.644531-17.066406 17.070312-17.066406zm0 0"/><path d="m400.050781 324.449219h43.773438c9.414062.027343 17.039062 7.652343 17.066406 17.066406v34.132813c-.027344 9.414062-7.652344 17.039062-17.066406 17.066406h-62.546875c-5.703125.019531-11.027344-2.835938-14.167969-7.59375l-13.566406-20.308594c-2.890625-4.355469-3.644531-9.785156-2.046875-14.761719zm0 0"/></g><path d="m179.292969 8.714844c-45.269531-.011719-88.6875 17.964844-120.695313 49.972656-32.007812 32.011719-49.984375 75.425781-49.972656 120.695312v153.601563c.03125 94.242187 76.425781 170.632813 170.667969 170.664063 80.117187 0 145.066406-64.949219 145.066406-145.066407v-8.53125h42.664063c18.851562 0 34.136718-15.285156 34.136718-34.136719 0-18.847656-15.285156-34.132812-34.136718-34.132812h-153.597657c-6.882812.003906-13.605469 2.085938-19.285156 5.976562-1.71875 1.214844-3.34375 2.554688-4.863281 4.007813-9.773438 9.761719-12.699219 24.453125-7.414063 37.214844 5.289063 12.761719 17.746094 21.078125 31.5625 21.070312h42.667969v8.53125c-.066406 42.390625-34.414062 76.734375-76.800781 76.800781-56.554688 0-102.402344-45.847656-102.402344-102.398437v-153.601563c-.035156-27.167968 10.742187-53.238281 29.953125-72.449218 19.210938-19.210938 45.277344-29.988282 72.449219-29.949219zm0 0" fill="#e3e7f2"/><path d="m293.636719 281.78125-54.953125-58.792969c-3.074219-3.316406-7.351563-5.261719-11.871094-5.40625s-8.910156 1.523438-12.191406 4.636719l-6.316406 5.804688c-3.308594 3.097656-5.25 7.382812-5.390626 11.914062-.144531 4.53125 1.519532 8.933594 4.625 12.234375l27.730469 29.609375zm0 0" fill="#d4e1f4"/><path d="m179.292969 503.648438c4.324219 0 8.53125-.273438 12.800781-.648438-89.035156-6.570312-157.90625-80.742188-157.867188-170.015625v-153.601563c.003907-89.257812 68.851563-163.40625 157.867188-170.019531-4.21875-.375-8.476562-.648437-12.800781-.648437-45.269531-.011719-88.6875 17.964844-120.695313 49.972656-32.007812 32.011719-49.984375 75.425781-49.972656 120.695312v153.601563c.03125 94.242187 76.425781 170.632813 170.667969 170.664063zm0 0" fill="#fff"/><path d="m.09375 332.984375v-153.601563h17.066406v153.601563zm0 0" fill="#fff"/><path d="m5.382812 272.566406c.484376.246094 1 .417969 1.535157.511719.566406.09375 1.136719.152344 1.707031.171875 2.257812-.035156 4.421875-.917969 6.058594-2.476562.773437-.816407 1.378906-1.769532 1.792968-2.816407 1.285157-3.179687.585938-6.824219-1.792968-9.300781-.816406-.769531-1.769532-1.378906-2.816406-1.789062-1.023438-.4375-2.125-.671876-3.242188-.683594-2.257812.03125-4.421875.914062-6.058594 2.472656-3.300781 3.367188-3.300781 8.753906 0 12.117188l1.28125 1.023437c.472656.324219.992188.582031 1.535156.769531zm0 0" fill="#428dff"/><path d="m482.226562 179.382812c-4.164062-.003906-8.28125.867188-12.085937 2.558594l14.882813-13.90625c5.832031-5.390625 9.265624-12.886718 9.542968-20.820312.273438-7.933594-2.632812-15.648438-8.074218-21.429688-3.039063-3.230468-6.773438-5.734375-10.914063-7.320312l5.246094-4.917969c7.546875-6.945313 10.964843-17.296875 9.042969-27.371094-1.921876-10.074219-8.914063-18.441406-18.488282-22.121093l5.265625-4.914063c7.8125-7.273437 11.152344-18.164063 8.761719-28.566406-2.390625-10.402344-10.152344-18.738281-20.355469-21.871094-10.207031-3.128906-21.304687-.578125-29.117187 6.695313l-5.046875 4.710937c-3.28125-9.542969-11.171875-16.777344-20.964844-19.222656-9.789063-2.441407-20.152344.234375-27.535156 7.113281l-71.679688 66.363281c-27.785156-46.042969-77.640625-74.183593-131.414062-74.179687-98.921875.113281-179.089844 80.277344-179.199219 179.199218v51.199219c0 4.714844 3.820312 8.535157 8.53125 8.535157 4.714844 0 8.535156-3.820313 8.535156-8.535157v-51.199219c.097656-89.503906 72.628906-162.035156 162.132813-162.132812 22.789062-.039062 45.222656 5.664062 65.226562 16.578125-2.945312.980469-5.734375 2.371094-8.292969 4.132813-9.316406 6.726562-14.941406 17.429687-15.199218 28.917968l-.417969 12.324219c-12.636719-7.039063-26.855469-10.738281-41.316406-10.753906-29.433594-.035157-57.671875 11.640625-78.484375 32.453125-20.808594 20.808594-32.488282 49.046875-32.449219 78.480468v153.601563c.070313 61.234375 49.695313 110.859375 110.933594 110.929687 47.101562-.0625 85.265625-38.230468 85.332031-85.332031v-8.53125c0-4.714843-3.820312-8.535156-8.53125-8.535156h-42.667969c-10.308593.003906-19.613281-6.179687-23.605469-15.683594-3.996093-9.503906-1.898437-20.472656 5.316407-27.835937 1.191406-1.136719 2.460937-2.1875 3.796875-3.140625 4.265625-2.933594 9.316406-4.515625 14.492187-4.539063h153.597657c14.140624 0 25.601562 11.460938 25.601562 25.597656 0 14.140626-11.460938 25.601563-25.601562 25.601563h-42.664063c-4.714844 0-8.535156 3.820313-8.535156 8.535156v8.53125c-.089844 75.367188-61.164063 136.445313-136.53125 136.535157-89.53125-.035157-162.101563-72.605469-162.132813-162.132813v-34.136719c0-4.710937-3.820312-8.53125-8.535156-8.53125-4.710938 0-8.53125 3.820313-8.53125 8.53125v34.136719c.035156 98.953125 80.246094 179.160156 179.199219 179.199219 61.886719-.074219 117.703125-37.230469 141.652343-94.292969.503907.988281 1.058594 1.988281 1.535157 2.96875 1.230469 2.53125 1.871093 5.308594 1.878906 8.125v57.597656c0 14.140625 11.460937 25.601563 25.597656 25.601563h119.46875c14.136719 0 25.597657-11.460938 25.597657-25.601563v-15.1875c5.410156-4.816406 8.511718-11.703125 8.535156-18.945312v-8.535157c-.023438-7.238281-3.125-14.128906-8.535156-18.941406v-3.125c10.136718-10.023437 16.214843-23.4375 17.070312-37.664062v-174.933594c.027344-7.925781-3.113281-15.539062-8.722656-21.136719-5.625-5.582031-13.222656-8.71875-21.144532-8.730469zm-17.066406-46.011718c3.363282.105468 6.542969 1.550781 8.839844 4.011718 2.339844 2.492188 3.617188 5.796876 3.558594 9.214844-.121094 3.421875-1.605469 6.648438-4.121094 8.96875l-7.050781 6.585938c-3.820313-8.277344-11.339844-14.253906-20.265625-16.109375l9.914062-9.277344c2.46875-2.300781 5.75-3.523437 9.125-3.394531zm4.09375-32.332032-24.847656 23.242188-.078125.0625-17.570313 16.441406c-.015624-7.855468-3.148437-15.386718-8.703124-20.941406-1.066407-1.007812-2.207032-1.9375-3.414063-2.769531l37.144531-34.699219c2.492188-2.328125 5.8125-3.5625 9.21875-3.433594 3.40625.125 6.621094 1.609375 8.933594 4.117188 2.316406 2.464844 3.550781 5.753906 3.421875 9.132812-.132813 3.382813-1.613281 6.570313-4.113281 8.847656zm-171.410156-14.789062-15.128906 13.890625 1.152344-34.070313c5.261718 6.289063 9.941406 13.042969 13.976562 20.179688zm-51.921875-34.234375c4.15625-3.144531 9.769531-3.570313 14.351563-1.085937 4.140624 2.140624 6.71875 6.433593 6.664062 11.09375l-1.203125 34.226562-.078125 3.414062c-.257812 6.898438 3.664062 13.269532 9.933594 16.148438 6.273437 2.882812 13.660156 1.699219 18.722656-2.988281l99.695312-92.316407c2.503907-2.28125 5.792969-3.503906 9.179688-3.410156 3.398438.101563 6.609375 1.570313 8.902344 4.078125 2.328125 2.464844 3.585937 5.753907 3.5 9.148438-.328125 3.179687-1.886719 6.105469-4.34375 8.148437l-71.980469 67.207032c-2.226563 2.082031-3.175781 5.191406-2.488281 8.164062.6875 2.96875 2.90625 5.347656 5.824218 6.238281 2.914063.886719 6.085938.15625 8.3125-1.925781l71.792969-67.003906c.074219-.066406.125-.152344.203125-.222656l24.679688-23.039063c3.800781-3.523437 9.347656-4.417969 14.066406-2.269531 4.71875 2.152344 7.679688 6.925781 7.511719 12.109375-.125 3.390625-1.613281 6.589843-4.121094 8.875l-69.121094 64.621093c-15.082031.53125-27.382812 12.265626-28.617187 27.308594-1.757813 2.628906-1.867188 6.027344-.285156 8.761719v.589844c-13.207032-6.007813-28.824219-1.476563-36.769532 10.667969l-9.828125-10.515626c-3.949219-4.324218-9.273437-7.148437-15.070312-7.996093l-21.835938-3.15625c-13.15625-1.941407-25.609375 6.511719-28.65625 19.457031l-5.519531 23.703125c-2.066406 8.335937.25 17.148437 6.140625 23.390625l42.726563 45.800781c6.769531 7.21875 17.121093 9.832031 26.507812 6.695313l-.070312 17.316406h-27.304688l-52.414062-56.054688c-7.324219-8.011718-18.976563-10.394531-28.859376-5.90625l-12.738281-13.652343 4.582031-4.269531c4.050782-3.691407 7.15625-8.304688 9.0625-13.445313 9.859376-26.34375 16.601563-53.753906 20.078126-81.664063l1.015624-30.722656c.054688-6.113281 2.957032-11.851562 7.851563-15.519531zm78.878906 183.960937-2.097656 1.945313c-1.648437 1.550781-3.84375 2.386719-6.109375 2.320313-2.261719-.066407-4.40625-1.03125-5.957031-2.679688l-42.667969-45.753906c-1.957031-2.070313-2.71875-4.996094-2.019531-7.757813l5.546875-23.773437c1.011718-4.328125 5.175781-7.152344 9.574218-6.496094l21.75 3.140625c1.949219.277344 3.738282 1.230469 5.058594 2.6875l17.152344 18.347656zm-85.835937 37.273438-25.207032-26.914062c-3.1875-3.429688-3.042968-8.78125.324219-12.03125l6.410157-5.898438c1.605468-1.578125 3.800781-2.414062 6.046874-2.296875 2.253907.0625 4.386719 1.035156 5.90625 2.699219l41.566407 44.441406zm-25.539063 85.332031h34.132813c-.0625 37.679688-30.589844 68.207031-68.265625 68.265625-51.816407-.058594-93.808594-42.050781-93.867188-93.863281v-153.601563c-.035156-24.90625 9.839844-48.800781 27.453125-66.414062 17.609375-17.609375 41.507813-27.488281 66.414063-27.453125 14.570312.011719 28.753906 4.707031 40.457031 13.390625-3.402344 25.640625-9.703125 50.8125-18.773438 75.03125-.972656 2.632812-2.5625 4.988281-4.644531 6.871094l-42.042969 39.328125c-4.972656 4.621093-7.902343 11.03125-8.140624 17.8125-.242188 6.785156 2.226562 13.382812 6.859374 18.34375l29.015626 30.96875c-11.441407 12.4375-14.429688 30.464843-7.621094 45.929687s22.125 25.429688 39.023437 25.390625zm-17.554687-81.46875-30.402344-32.484375c-1.535156-1.652344-2.347656-3.84375-2.261719-6.09375.085938-2.253906 1.066407-4.375 2.722657-5.90625l24.941406-23.328125 11.640625 12.457031c-4.960938 4.644532-7.871094 11.070313-8.089844 17.863282-.21875 6.789062 2.269531 13.390625 6.921875 18.34375l14.242188 15.285156h-2.160157c-6.058593.019531-12.046875 1.339844-17.554687 3.863281zm145.84375-3.863281.394531-98.457031c-.175781-4.605469 2.203125-8.929688 6.1875-11.25 3.980469-2.320313 8.914063-2.257813 12.835937.167969 3.921876 2.421874 6.1875 6.804687 5.890626 11.40625v98.132812zm64.359375 59.734375h37.75c4.714843 0 8.535156 3.820313 8.535156 8.53125v34.132813c0 4.714843-3.820313 8.535156-8.535156 8.535156h-62.546875c-2.851563.007812-5.511719-1.425782-7.074219-3.808594l-13.535156-20.265625c-.242188-.488281-.4375-1-.582031-1.527344h6.9375c16.945312-.023437 32.273437-10.070312 39.050781-25.597656zm71.882812 153.597656c0 4.714844-3.820312 8.535157-8.53125 8.535157h-119.46875c-4.710937 0-8.53125-3.820313-8.53125-8.535157v-34.132812h17.066407c0 14.136719 11.460937 25.601562 25.601562 25.601562h93.863281zm8.535157-42.667969v8.535157c0 4.714843-3.820313 8.535156-8.535157 8.535156h-93.863281c-4.714844 0-8.535156-3.820313-8.535156-8.535156v-8.535157c0-4.710937 3.820312-8.53125 8.535156-8.53125h93.863281c4.714844 0 8.535157 3.820313 8.535157 8.53125zm8.53125-59.730468c-.960938 9.84375-5.359376 19.039062-12.421876 25.964844-2.152343 2.292968-3.628906 5.132812-4.269531 8.210937-.117187-.042969-.246093-.042969-.375-.042969h-93.863281c-10.8125.042969-20.429688 6.875-24.03125 17.066406h-18.636719v-6.398437c-.007812-5.421875-1.246093-10.769531-3.617187-15.644531-2.878906-5.835938-6.078125-11.742188-9.585938-17.867188 3.050782-12.0625 4.621094-24.449218 4.667969-36.890625h9.5c.496094 3.921875 1.886719 7.675781 4.0625 10.972657l13.539063 20.269531c4.714843 7.152343 12.714843 11.449219 21.285156 11.425781h62.546875c14.140625 0 25.601562-11.460938 25.601562-25.601562v-34.132813c0-14.136719-11.460937-25.601563-25.601562-25.601563h-34.132813c-.023437-17.214843-10.378906-32.730468-26.265625-39.363281.441407-1.042969.664063-2.167969.667969-3.300781v-132.265625c0-7.070313 5.730469-12.800781 12.796875-12.800781 7.070313 0 12.800781 5.730468 12.800781 12.800781v132.265625c0 4.710938 3.820313 8.53125 8.535156 8.53125 4.710938 0 8.53125-3.820312 8.53125-8.53125v-98.132812c0-7.070313 5.730469-12.800782 12.800782-12.800782 7.070312 0 12.800781 5.730469 12.800781 12.800782v115.199218c0 4.710938 3.820313 8.53125 8.53125 8.53125 4.714844 0 8.535156-3.820312 8.535156-8.53125v-81.066406c0-7.070312 5.730469-12.800781 12.800781-12.800781 7.066407 0 12.796876 5.730469 12.796876 12.800781zm0 0" fill="#428dff"/></svg>